<?xml version="1.0" standalone="no"?>
<!DOCTYPE svg PUBLIC "-//W3C//DTD SVG 20010904//EN"
 "http://www.w3.org/TR/2001/REC-SVG-20010904/DTD/svg10.dtd">
<svg version="1.0" xmlns="http://www.w3.org/2000/svg"
 width="1200.000000pt" height="1200.000000pt" viewBox="0 0 1200.000000 1200.000000"
 preserveAspectRatio="xMidYMid meet">

<g transform="translate(0.000000,1200.000000) scale(0.100000,-0.100000)"
fill="#000000" stroke="none">
<path d="M5630 11984 c-19 -2 -93 -9 -165 -15 -954 -79 -1931 -418 -2750 -956
-1487 -977 -2462 -2555 -2669 -4318 -31 -265 -39 -451 -33 -803 6 -363 18
-519 63 -812 223 -1447 961 -2749 2094 -3696 839 -701 1882 -1165 2975 -1323
327 -47 444 -55 850 -55 417 -1 546 8 900 60 1566 231 2979 1083 3937 2374
589 794 981 1758 1112 2742 45 335 51 436 50 828 0 468 -24 722 -105 1140
-397 2038 -1837 3737 -3784 4465 -475 178 -968 293 -1500 351 -141 15 -877 29
-975 18z m960 -148 c1228 -139 2266 -579 3200 -1360 171 -142 514 -481 659
-651 661 -772 1115 -1704 1310 -2690 112 -566 139 -1210 75 -1785 -193 -1734
-1149 -3294 -2609 -4255 -697 -459 -1484 -763 -2315 -894 -539 -86 -1112 -92
-1675 -20 -876 113 -1736 436 -2480 932 -1383 922 -2317 2389 -2555 4017 -41
280 -52 426 -57 755 -6 363 3 553 42 860 199 1571 1029 2992 2308 3951 890
667 1943 1063 3072 1153 178 15 856 6 1025 -13z"/>
<path d="M5931 11498 c-5 -13 -66 -161 -135 -330 -69 -169 -126 -311 -126
-317 0 -7 27 -11 69 -11 l70 0 28 75 28 75 136 0 136 0 27 -74 c20 -55 33 -76
49 -80 24 -6 127 -8 127 -2 0 6 -142 382 -202 534 l-60 152 -69 0 c-63 0 -70
-2 -78 -22z m124 -276 c20 -62 35 -116 32 -119 -10 -10 -167 9 -167 20 0 22
84 227 91 220 3 -5 23 -59 44 -121z"/>
<path d="M6456 11448 c-9 -87 -45 -623 -42 -626 2 -1 33 -5 69 -9 l65 -6 6 84
c32 420 41 592 31 594 -5 2 -36 6 -67 9 l-57 6 -5 -52z"/>
<path d="M5245 11463 c-110 -11 -267 -32 -273 -37 -3 -4 1 -68 10 -144 17
-145 15 -152 -29 -152 -24 0 -27 -9 -17 -59 6 -29 9 -31 39 -25 39 7 37 11 56
-161 6 -60 15 -114 19 -118 10 -11 267 19 338 39 73 20 135 78 163 152 29 77
23 237 -11 327 -31 82 -97 147 -169 169 -30 9 -62 15 -70 14 -9 -1 -34 -3 -56
-5z m93 -133 c61 -37 94 -128 94 -256 1 -72 -21 -123 -61 -147 -28 -16 -187
-44 -197 -34 -6 6 -24 115 -24 149 0 26 2 27 71 34 l71 7 -6 30 c-3 16 -6 36
-6 44 0 11 -9 13 -37 9 -21 -3 -54 -7 -73 -8 l-35 -3 -11 85 c-6 47 -9 87 -7
90 5 5 95 16 153 18 20 1 49 -7 68 -18z"/>
<path d="M7037 11236 c-20 -94 -52 -244 -70 -332 l-34 -162 55 -11 c30 -6 61
-11 67 -11 7 0 23 51 40 129 15 71 31 134 35 142 7 10 27 8 107 -9 54 -12 105
-22 113 -22 40 0 41 -12 10 -155 -16 -76 -28 -141 -25 -143 9 -10 120 -31 126
-24 12 14 140 645 132 652 -10 10 -114 32 -120 26 -3 -2 -16 -55 -29 -118 -13
-62 -26 -118 -28 -124 -5 -14 -262 38 -260 52 1 5 12 62 25 126 13 64 20 120
17 124 -4 3 -34 12 -66 19 l-59 12 -36 -171z"/>
<path d="M4207 11229 c-196 -46 -302 -217 -253 -407 23 -90 57 -151 115 -205
54 -50 77 -62 154 -79 99 -21 247 28 342 114 84 76 84 76 35 223 -26 77 -47
125 -54 122 -6 -2 -68 -23 -138 -46 -71 -24 -128 -44 -128 -45 0 -4 33 -101
35 -103 1 -2 34 8 74 22 l72 24 8 -22 c22 -59 22 -62 -16 -99 -78 -74 -160
-94 -233 -56 -115 59 -177 247 -116 352 54 92 192 121 263 54 l23 -22 60 29
c33 16 60 32 60 36 0 20 -60 74 -105 95 -53 25 -126 30 -198 13z"/>
<path d="M7927 11129 c-150 -35 -267 -208 -267 -394 0 -162 139 -292 323 -303
97 -6 152 13 221 77 89 83 149 256 127 362 -28 131 -117 215 -268 254 -63 17
-80 17 -136 4z m174 -142 c85 -45 112 -117 85 -225 -30 -124 -115 -212 -202
-212 -73 1 -150 51 -173 113 -37 97 27 273 118 326 49 28 116 27 172 -2z"/>
<path d="M3598 10964 c-27 -13 -48 -27 -48 -30 0 -3 43 -91 96 -195 54 -104
95 -191 93 -193 -2 -2 -102 57 -222 130 l-217 134 -61 -30 -60 -31 152 -297
c84 -163 154 -299 156 -301 6 -7 115 49 111 57 -2 4 -45 89 -96 190 -51 100
-90 182 -87 182 12 0 75 -36 248 -143 l179 -110 59 28 c32 16 59 33 59 39 -1
19 -294 589 -305 592 -5 2 -31 -8 -57 -22z"/>
<path d="M5930 10715 l0 -65 65 0 65 0 0 65 0 65 -65 0 -65 0 0 -65z"/>
<path d="M8585 10757 c-27 -13 -74 -49 -103 -80 -145 -154 -164 -366 -43 -487
60 -60 126 -91 207 -98 57 -4 71 -1 127 26 35 18 71 40 80 50 16 17 14 21 -32
66 l-48 48 -46 -33 c-74 -52 -157 -38 -211 34 -34 45 -28 135 12 214 37 72 83
128 123 149 96 49 223 -26 222 -130 l-1 -45 55 -16 c76 -22 83 -17 83 52 -1
102 -57 186 -163 240 -76 39 -192 43 -262 10z"/>
<path d="M2948 10614 c-27 -20 -48 -39 -48 -41 0 -3 16 -27 36 -54 35 -48 35
-48 61 -32 24 16 26 16 39 -2 16 -21 19 -61 5 -69 -5 -4 -33 6 -63 21 -42 21
-67 27 -123 27 -87 1 -129 -14 -203 -68 -177 -131 -184 -347 -17 -521 75 -78
141 -109 235 -109 63 -1 84 4 133 27 72 36 152 113 178 173 48 106 32 213 -47
331 -42 63 -45 70 -35 99 24 67 4 132 -66 212 l-38 44 -47 -38z m-27 -302
c115 -73 181 -231 135 -320 -29 -56 -104 -102 -163 -102 -111 1 -243 151 -243
276 0 134 156 218 271 146z"/>
<path d="M5732 10589 c-46 -4 -132 -17 -190 -28 -59 -11 -154 -27 -212 -36
-1817 -267 -3318 -1624 -3765 -3405 -213 -849 -180 -1747 95 -2570 303 -908
882 -1695 1666 -2266 344 -250 800 -486 1209 -624 286 -97 630 -173 980 -216
189 -24 258 -27 490 -28 233 0 299 4 480 27 717 90 1272 275 1850 616 485 285
941 689 1295 1146 983 1270 1223 2981 628 4480 -514 1297 -1611 2301 -2949
2700 -165 49 -412 106 -569 130 -58 9 -150 25 -206 36 -240 47 -558 62 -802
38z m218 -63 c0 -2 -8 -10 -17 -17 -16 -13 -17 -12 -4 4 13 16 21 21 21 13z
m420 -10 c0 -2 -7 -7 -16 -10 -8 -3 -12 -2 -9 4 6 10 25 14 25 6z m360 -66 c0
-5 -5 -10 -11 -10 -5 0 -7 5 -4 10 3 6 8 10 11 10 2 0 4 -4 4 -10z m360 -34
c0 -2 -7 -7 -16 -10 -8 -3 -12 -2 -9 4 6 10 25 14 25 6z m-539 -83 c13 -16 12
-17 -3 -4 -10 7 -18 15 -18 17 0 8 8 3 21 -13z m60 -10 c13 -16 12 -17 -3 -4
-10 7 -18 15 -18 17 0 8 8 3 21 -13z m-1171 -6 c0 -1 -26 -27 -57 -57 l-58
-55 55 58 c50 53 60 62 60 54z m-230 -42 c13 -14 21 -25 18 -25 -2 0 -15 11
-28 25 -13 14 -21 25 -18 25 2 0 15 -11 28 -25z m1440 -30 c19 -19 32 -35 29
-35 -3 0 -20 16 -39 35 -19 19 -32 35 -29 35 3 0 20 -16 39 -35z m-1341 -68
c-2 -1 -13 -9 -24 -17 -19 -14 -19 -14 -6 3 7 9 18 17 24 17 6 0 8 -1 6 -3z
m1431 -32 c13 -14 21 -25 18 -25 -2 0 -15 11 -28 25 -13 14 -21 25 -18 25 2 0
15 -11 28 -25z m51 -12 c13 -16 12 -17 -3 -4 -10 7 -18 15 -18 17 0 8 8 3 21
-13z m-404 -9 c-3 -3 -12 -4 -19 -1 -8 3 -5 6 6 6 11 1 17 -2 13 -5z m-90 -10
c-3 -3 -12 -4 -19 -1 -8 3 -5 6 6 6 11 1 17 -2 13 -5z m-454 -11 c-7 -2 -19
-2 -25 0 -7 3 -2 5 12 5 14 0 19 -2 13 -5z m350 0 c-7 -2 -19 -2 -25 0 -7 3
-2 5 12 5 14 0 19 -2 13 -5z m-376 -29 c-3 -3 -12 -4 -19 -1 -8 3 -5 6 6 6 11
1 17 -2 13 -5z m2203 -18 c0 -2 -8 -10 -17 -17 -16 -13 -17 -12 -4 4 13 16 21
21 21 13z m-629 -23 c13 -16 12 -17 -3 -4 -10 7 -18 15 -18 17 0 8 8 3 21 -13z
m569 13 c0 -2 -8 -10 -17 -17 -16 -13 -17 -12 -4 4 13 16 21 21 21 13z m-3360
-29 c0 -2 -10 -12 -22 -23 l-23 -19 19 23 c18 21 26 27 26 19z m50 -1 c0 -2
-8 -10 -17 -17 -16 -13 -17 -12 -4 4 13 16 21 21 21 13z m3297 -24 c-10 -10
-14 -22 -10 -27 5 -4 2 -5 -5 -1 -11 6 -10 12 4 27 9 10 19 19 22 19 3 0 -2
-8 -11 -18z m-542 -12 c10 -11 16 -20 13 -20 -3 0 -13 9 -23 20 -10 11 -16 20
-13 20 3 0 13 -9 23 -20z m75 -25 c13 -14 21 -25 18 -25 -2 0 -15 11 -28 25
-13 14 -21 25 -18 25 2 0 15 -11 28 -25z m-2910 -8 c0 -2 -15 -16 -32 -33
l-33 -29 29 33 c28 30 36 37 36 29z m2940 -62 c13 -14 21 -25 18 -25 -2 0 -15
11 -28 25 -13 14 -21 25 -18 25 2 0 15 -11 28 -25z m-3040 12 c0 -2 -12 -14
-27 -28 l-28 -24 24 28 c23 25 31 32 31 24z m3175 -88 c-4 -5 1 -20 11 -32
l18 -22 -23 21 c-20 19 -22 44 -5 44 3 0 2 -5 -1 -11z m-3215 -2 c0 -2 -17
-19 -37 -38 l-38 -34 34 38 c33 34 41 42 41 34z m-580 -11 c0 -2 -8 -10 -17
-17 -16 -13 -17 -12 -4 4 13 16 21 21 21 13z m490 -39 c0 -2 -10 -12 -22 -23
l-23 -19 19 23 c18 21 26 27 26 19z m-550 -11 c0 -2 -8 -10 -17 -17 -16 -13
-17 -12 -4 4 13 16 21 21 21 13z m3880 -31 c13 -14 21 -25 18 -25 -2 0 -15 11
-28 25 -13 14 -21 25 -18 25 2 0 15 -11 28 -25z m591 -2 c13 -16 12 -17 -3 -4
-10 7 -18 15 -18 17 0 8 8 3 21 -13z m-530 -20 c13 -16 12 -17 -3 -4 -10 7
-18 15 -18 17 0 8 8 3 21 -13z m-3951 3 c0 -2 -8 -10 -17 -17 -16 -13 -17 -12
-4 4 13 16 21 21 21 13z m-60 -9 c0 -2 -10 -12 -22 -23 l-23 -19 19 23 c18 21
26 27 26 19z m600 -1 c0 -2 -8 -10 -17 -17 -16 -13 -17 -12 -4 4 13 16 21 21
21 13z m-50 -10 c0 -2 -8 -10 -17 -17 -16 -13 -17 -12 -4 4 13 16 21 21 21 13z
m2785 -16 c-3 -5 -12 -10 -18 -10 -7 0 -6 4 3 10 19 12 23 12 15 0z m1230 -10
c10 -11 16 -20 13 -20 -3 0 -13 9 -23 20 -10 11 -16 20 -13 20 3 0 13 -9 23
-20z m-544 -17 c13 -16 12 -17 -3 -4 -10 7 -18 15 -18 17 0 8 8 3 21 -13z
m625 -15 l29 -33 -32 29 c-31 28 -38 36 -30 36 2 0 16 -15 33 -32z m-4666 9
c0 -2 -17 -19 -37 -38 l-38 -34 34 38 c33 34 41 42 41 34z m520 -11 c0 -2 -8
-10 -17 -17 -16 -13 -17 -12 -4 4 13 16 21 21 21 13z m-670 -91 c-41 -41 -77
-75 -79 -75 -3 0 28 34 69 75 41 41 77 75 79 75 3 0 -28 -34 -69 -75z m2017
59 c-3 -3 -12 -4 -19 -1 -8 3 -5 6 6 6 11 1 17 -2 13 -5z m780 -16 c-3 -8 -6
-5 -6 6 -1 11 2 17 5 13 3 -3 4 -12 1 -19z m260 16 c-3 -3 -12 -4 -19 -1 -8 3
-5 6 6 6 11 1 17 -2 13 -5z m-94 -11 c-7 -2 -21 -2 -30 0 -10 3 -4 5 12 5 17
0 24 -2 18 -5z m-675 -10 c-10 -2 -26 -2 -35 0 -10 3 -2 5 17 5 19 0 27 -2 18
-5z m2617 -73 c44 -44 77 -80 75 -80 -3 0 -41 36 -85 80 -44 44 -77 80 -75 80
3 0 41 -36 85 -80z m-2918 64 c-3 -3 -12 -4 -19 -1 -8 3 -5 6 6 6 11 1 17 -2
13 -5z m1100 0 c-3 -3 -12 -4 -19 -1 -8 3 -5 6 6 6 11 1 17 -2 13 -5z m-110
-10 c-3 -3 -12 -4 -19 -1 -8 3 -5 6 6 6 11 1 17 -2 13 -5z m-740 -10 c-3 -3
-12 -4 -19 -1 -8 3 -5 6 6 6 11 1 17 -2 13 -5z m-2636 -21 c13 -16 12 -17 -3
-4 -10 7 -18 15 -18 17 0 8 8 3 21 -13z m-51 -17 c0 -2 -8 -10 -17 -17 -16
-13 -17 -12 -4 4 13 16 21 21 21 13z m175 -76 c27 -27 47 -50 44 -50 -3 0 -27
23 -54 50 -27 28 -47 50 -44 50 3 0 27 -22 54 -50z m5545 46 c0 -2 -8 -10 -17
-17 -16 -13 -17 -12 -4 4 13 16 21 21 21 13z m141 -13 c13 -16 12 -17 -3 -4
-10 7 -18 15 -18 17 0 8 8 3 21 -13z m-5931 -16 c0 -2 -10 -12 -22 -23 l-23
-19 19 23 c18 21 26 27 26 19z m5790 -20 c0 -1 -24 -25 -52 -52 l-53 -50 50
53 c46 48 55 57 55 49z m-214 -39 l29 -33 -32 29 c-31 28 -38 36 -30 36 2 0
16 -15 33 -32z m434 7 c13 -14 21 -25 18 -25 -2 0 -15 11 -28 25 -13 14 -21
25 -18 25 2 0 15 -11 28 -25z m-5570 12 c0 -2 -15 -16 -32 -33 l-33 -29 29 33
c28 30 36 37 36 29z m-60 -21 c0 -2 -8 -10 -17 -17 -16 -13 -17 -12 -4 4 13
16 21 21 21 13z m-520 -71 c-24 -25 -46 -45 -49 -45 -3 0 15 20 39 45 24 25
46 45 49 45 3 0 -15 -20 -39 -45z m449 1 c-3 -3 -11 5 -18 17 -13 21 -12 21 5
5 10 -10 16 -20 13 -22z m5276 14 c10 -11 16 -20 13 -20 -3 0 -13 9 -23 20
-10 11 -16 20 -13 20 3 0 13 -9 23 -20z m-5200 -20 c10 -11 16 -20 13 -20 -3
0 -13 9 -23 20 -10 11 -16 20 -13 20 3 0 13 -9 23 -20z m-45 -14 c0 -2 -8 -10
-17 -17 -16 -13 -17 -12 -4 4 13 16 21 21 21 13z m5855 -76 c44 -44 77 -80 75
-80 -3 0 -41 36 -85 80 -44 44 -77 80 -75 80 3 0 41 -36 85 -80z m-3608 48
c-3 -8 -6 -5 -6 6 -1 11 2 17 5 13 3 -3 4 -12 1 -19z m780 -30 c-3 -8 -6 -5
-6 6 -1 11 2 17 5 13 3 -3 4 -12 1 -19z m2304 -5 c13 -16 12 -17 -3 -4 -10 7
-18 15 -18 17 0 8 8 3 21 -13z m-5971 -76 c0 -2 -19 -21 -42 -42 l-43 -40 40
43 c36 39 45 47 45 39z m3687 -89 c-3 -8 -6 -5 -6 6 -1 11 2 17 5 13 3 -3 4
-12 1 -19z m2978 -28 c10 -11 16 -20 13 -20 -3 0 -13 9 -23 20 -10 11 -16 20
-13 20 3 0 13 -9 23 -20z m-2938 -32 c-3 -8 -6 -5 -6 6 -1 11 2 17 5 13 3 -3
4 -12 1 -19z m-3857 8 c0 -2 -8 -10 -17 -17 -16 -13 -17 -12 -4 4 13 16 21 21
21 13z m3827 -38 c-3 -8 -6 -5 -6 6 -1 11 2 17 5 13 3 -3 4 -12 1 -19z m-237
8 c0 -3 -4 -8 -10 -11 -5 -3 -10 -1 -10 4 0 6 5 11 10 11 6 0 10 -2 10 -4z
m3281 -33 c13 -16 12 -17 -3 -4 -10 7 -18 15 -18 17 0 8 8 3 21 -13z m-6931
-7 c0 -2 -8 -10 -17 -17 -16 -13 -17 -12 -4 4 13 16 21 21 21 13z m2600 1 c0
-2 -10 -12 -22 -23 l-23 -19 19 23 c18 21 26 27 26 19z m1327 -29 c-3 -8 -6
-5 -6 6 -1 11 2 17 5 13 3 -3 4 -12 1 -19z m-30 -30 c-3 -8 -6 -5 -6 6 -1 11
2 17 5 13 3 -3 4 -12 1 -19z m3084 5 c13 -16 12 -17 -3 -4 -10 7 -18 15 -18
17 0 8 8 3 21 -13z m-7031 -7 c0 -2 -8 -10 -17 -17 -16 -13 -17 -12 -4 4 13
16 21 21 21 13z m3957 -98 c-3 -8 -6 -5 -6 6 -1 11 2 17 5 13 3 -3 4 -12 1
-19z m40 -60 c-3 -8 -6 -5 -6 6 -1 11 2 17 5 13 3 -3 4 -12 1 -19z m260 -14
c-3 -3 -12 -4 -19 -1 -8 3 -5 6 6 6 11 1 17 -2 13 -5z m-114 -11 c-7 -2 -19
-2 -25 0 -7 3 -2 5 12 5 14 0 19 -2 13 -5z m-200 -10 c-7 -2 -19 -2 -25 0 -7
3 -2 5 12 5 14 0 19 -2 13 -5z m444 1 c-3 -3 -12 -4 -19 -1 -8 3 -5 6 6 6 11
1 17 -2 13 -5z m-100 -10 c-3 -3 -12 -4 -19 -1 -8 3 -5 6 6 6 11 1 17 -2 13
-5z m-120 -10 c-3 -3 -12 -4 -19 -1 -8 3 -5 6 6 6 11 1 17 -2 13 -5z m-130
-10 c-3 -3 -12 -4 -19 -1 -8 3 -5 6 6 6 11 1 17 -2 13 -5z m-4206 -41 c13 -16
12 -17 -3 -4 -10 7 -18 15 -18 17 0 8 8 3 21 -13z m50 -10 c13 -16 12 -17 -3
-4 -10 7 -18 15 -18 17 0 8 8 3 21 -13z m4096 -35 c-3 -8 -6 -5 -6 6 -1 11 2
17 5 13 3 -3 4 -12 1 -19z m-4052 -58 c33 -33 57 -60 54 -60 -2 0 -31 27 -64
60 -33 33 -57 60 -54 60 2 0 31 -27 64 -60z m2142 44 c-3 -3 -12 -4 -19 -1 -8
3 -5 6 6 6 11 1 17 -2 13 -5z m-2036 -101 c13 -16 12 -17 -3 -4 -10 7 -18 15
-18 17 0 8 8 3 21 -13z m3335 -108 l6 -34 77 -3 76 -3 -45 -33 c-25 -19 -51
-37 -59 -42 -12 -6 -12 -15 1 -56 33 -104 35 -99 -19 -58 -26 20 -51 41 -55
47 -4 7 -30 -7 -69 -37 -34 -27 -59 -41 -56 -32 4 9 14 42 23 72 15 53 15 56
-3 69 -10 8 -21 15 -25 15 -4 0 -5 7 -2 15 5 11 2 13 -10 9 -11 -4 -16 -1 -16
10 0 13 11 16 50 16 l49 0 22 71 22 72 13 -32 c7 -17 16 -47 20 -66z m-3325
58 c13 -16 12 -17 -3 -4 -10 7 -18 15 -18 17 0 8 8 3 21 -13z m4279 3 c0 -2
-8 -10 -17 -17 -16 -13 -17 -12 -4 4 13 16 21 21 21 13z m2740 -50 c0 -2 -8
-10 -17 -17 -16 -13 -17 -12 -4 4 13 16 21 21 21 13z m-10 -59 c0 -1 -26 -27
-57 -57 l-58 -55 55 58 c50 53 60 62 60 54z m-4593 -203 c-3 -3 -12 -4 -19 -1
-8 3 -5 6 6 6 11 1 17 -2 13 -5z m1590 -16 c-3 -8 -6 -5 -6 6 -1 11 2 17 5 13
3 -3 4 -12 1 -19z m-30 -70 c-2 -13 -4 -5 -4 17 -1 22 1 32 4 23 2 -10 2 -28
0 -40z m40 -110 c-3 -8 -6 -5 -6 6 -1 11 2 17 5 13 3 -3 4 -12 1 -19z m-30
-50 c-2 -13 -4 -5 -4 17 -1 22 1 32 4 23 2 -10 2 -28 0 -40z m40 -125 c-3 -10
-5 -4 -5 12 0 17 2 24 5 18 2 -7 2 -21 0 -30z m-2193 -39 c3 -8 2 -12 -4 -9
-6 3 -10 10 -10 16 0 14 7 11 14 -7z m2163 -21 c-3 -10 -5 -4 -5 12 0 17 2 24
5 18 2 -7 2 -21 0 -30z m1130 -5 c-3 -8 -6 -5 -6 6 -1 11 2 17 5 13 3 -3 4
-12 1 -19z m-2390 -4 c-3 -3 -12 -4 -19 -1 -8 3 -5 6 6 6 11 1 17 -2 13 -5z
m46 -1 c-7 -2 -19 -2 -25 0 -7 3 -2 5 12 5 14 0 19 -2 13 -5z m-3292 -20 c13
-16 12 -17 -3 -4 -10 7 -18 15 -18 17 0 8 8 3 21 -13z m70 -70 c13 -16 12 -17
-3 -4 -10 7 -18 15 -18 17 0 8 8 3 21 -13z m4476 -55 c-2 -13 -4 -5 -4 17 -1
22 1 32 4 23 2 -10 2 -28 0 -40z m-4384 -52 c113 -72 286 -134 483 -172 203
-39 326 -45 1069 -54 733 -8 873 -14 1129 -51 670 -96 1061 -393 1204 -915 11
-40 25 -70 33 -71 8 -2 28 21 46 50 75 124 228 272 391 378 615 402 1675 544
2517 338 120 -30 315 -91 315 -100 0 -4 -24 -20 -52 -37 -107 -60 -205 -191
-332 -441 -93 -184 -151 -320 -375 -878 -391 -975 -580 -1366 -872 -1798 -804
-1191 -1834 -1348 -3163 -482 -146 96 -166 123 -46 62 365 -184 776 -271 1104
-236 627 69 1154 498 1631 1330 178 312 354 692 610 1321 182 448 231 563 292
683 24 48 41 92 39 96 -11 18 -208 36 -381 35 -498 -2 -956 -163 -1292 -456
-177 -154 -317 -361 -403 -596 -17 -45 -31 -71 -34 -62 -3 8 -20 62 -36 119
-141 476 -392 821 -733 1005 -161 87 -368 150 -596 181 -168 23 -524 36 -776
29 -227 -6 -620 7 -760 26 -478 64 -791 235 -1015 552 -45 64 -130 216 -130
234 0 3 17 -8 38 -24 20 -16 63 -46 95 -66z m2838 67 c13 -17 13 -17 -6 -3
-11 8 -22 16 -24 17 -2 2 0 3 6 3 6 0 17 -8 24 -17z m-3106 -13 c10 -11 16
-20 13 -20 -3 0 -13 9 -23 20 -10 11 -16 20 -13 20 3 0 13 -9 23 -20z m95 -55
c35 -36 62 -65 59 -65 -2 0 -34 29 -69 65 -35 36 -62 65 -59 65 2 0 34 -29 69
-65z m5117 59 c-3 -3 -12 -4 -19 -1 -8 3 -5 6 6 6 11 1 17 -2 13 -5z m-1282
-22 c-3 -3 -11 0 -18 7 -9 10 -8 11 6 5 10 -3 15 -9 12 -12z m1148 11 c-7 -2
-19 -2 -25 0 -7 3 -2 5 12 5 14 0 19 -2 13 -5z m374 1 c-3 -3 -12 -4 -19 -1
-8 3 -5 6 6 6 11 1 17 -2 13 -5z m-544 -11 c-7 -2 -21 -2 -30 0 -10 3 -4 5 12
5 17 0 24 -2 18 -5z m444 1 c-3 -3 -12 -4 -19 -1 -8 3 -5 6 6 6 11 1 17 -2 13
-5z m-1009 -11 c-32 -2 -86 -2 -120 0 -35 2 -9 3 57 3 66 0 94 -1 63 -3z m220
0 c-21 -2 -55 -2 -75 0 -21 2 -4 4 37 4 41 0 58 -2 38 -4z m685 0 c-7 -2 -19
-2 -25 0 -7 3 -2 5 12 5 14 0 19 -2 13 -5z m-126 -9 c-3 -3 -12 -4 -19 -1 -8
3 -5 6 6 6 11 1 17 -2 13 -5z m-154 -11 c-7 -2 -19 -2 -25 0 -7 3 -2 5 12 5
14 0 19 -2 13 -5z m804 -15 c-3 -8 -6 -5 -6 6 -1 11 2 17 5 13 3 -3 4 -12 1
-19z m-1684 5 c-13 -2 -35 -2 -50 0 -16 2 -5 4 22 4 28 0 40 -2 28 -4z m660 0
c-13 -2 -33 -2 -45 0 -13 2 -3 4 22 4 25 0 35 -2 23 -4z m-2376 -25 c-3 -8 -6
-5 -6 6 -1 11 2 17 5 13 3 -3 4 -12 1 -19z m30 -30 c-3 -8 -6 -5 -6 6 -1 11 2
17 5 13 3 -3 4 -12 1 -19z m3410 0 c-3 -8 -6 -5 -6 6 -1 11 2 17 5 13 3 -3 4
-12 1 -19z m-3450 -50 c-3 -8 -6 -5 -6 6 -1 11 2 17 5 13 3 -3 4 -12 1 -19z
m-2166 -35 c13 -16 12 -17 -3 -4 -17 13 -22 21 -14 21 2 0 10 -8 17 -17z
m5626 -5 c-3 -8 -6 -5 -6 6 -1 11 2 17 5 13 3 -3 4 -12 1 -19z m-1160 -80 c-2
-18 -4 -4 -4 32 0 36 2 50 4 33 2 -18 2 -48 0 -65z m1130 60 c-3 -8 -6 -5 -6
6 -1 11 2 17 5 13 3 -3 4 -12 1 -19z m-5512 -48 c21 -22 37 -40 34 -40 -3 0
-23 18 -44 40 -21 22 -37 40 -34 40 3 0 23 -18 44 -40z m818 33 c-7 -2 -19 -2
-25 0 -7 3 -2 5 12 5 14 0 19 -2 13 -5z m1385 -20 c-10 -2 -28 -2 -40 0 -13 2
-5 4 17 4 22 1 32 -1 23 -4z m165 -10 c-7 -2 -21 -2 -30 0 -10 3 -4 5 12 5 17
0 24 -2 18 -5z m124 -9 c-3 -3 -12 -4 -19 -1 -8 3 -5 6 6 6 11 1 17 -2 13 -5z
m1860 -66 c-2 -13 -4 -5 -4 17 -1 22 1 32 4 23 2 -10 2 -28 0 -40z m1170 30
c-3 -8 -6 -5 -6 6 -1 11 2 17 5 13 3 -3 4 -12 1 -19z m2273 -1 c0 -2 -15 -16
-32 -33 l-33 -29 29 33 c28 30 36 37 36 29z m-4560 -82 c0 -30 -3 -55 -7 -55
-5 0 -6 25 -5 55 5 71 12 71 12 0z m2297 -17 c-3 -8 -6 -5 -6 6 -1 11 2 17 5
13 3 -3 4 -12 1 -19z m2183 19 c0 -2 -15 -16 -32 -33 l-33 -29 29 33 c28 30
36 37 36 29z m-1752 -34 c-16 -2 -40 -2 -55 0 -16 2 -3 4 27 4 30 0 43 -2 28
-4z m195 0 c-13 -2 -35 -2 -50 0 -16 2 -5 4 22 4 28 0 40 -2 28 -4z m-406 -9
c-3 -3 -12 -4 -19 -1 -8 3 -5 6 6 6 11 1 17 -2 13 -5z m586 -1 c-7 -2 -19 -2
-25 0 -7 3 -2 5 12 5 14 0 19 -2 13 -5z m277 -23 c0 -5 -8 -10 -17 -10 -15 0
-16 2 -3 10 19 12 20 12 20 0z m-2223 -97 c-2 -21 -4 -6 -4 32 0 39 2 55 4 38
2 -18 2 -50 0 -70z m-4227 -48 c13 -14 21 -25 18 -25 -2 0 -15 11 -28 25 -13
14 -21 25 -18 25 2 0 15 -11 28 -25z m140 -160 c195 -148 465 -253 765 -299
182 -28 335 -36 810 -46 273 -6 526 -16 605 -24 454 -50 734 -167 976 -410
117 -118 208 -250 288 -416 61 -128 116 -270 116 -303 1 -24 -131 -367 -141
-367 -3 0 -23 52 -43 116 -142 442 -410 714 -801 813 -189 47 -263 53 -850 61
-308 5 -596 14 -640 20 -484 68 -793 245 -1047 601 -58 81 -208 357 -208 383
0 5 19 -8 43 -28 23 -20 80 -66 127 -101z m4057 43 c-2 -18 -4 -6 -4 27 0 33
2 48 4 33 2 -15 2 -42 0 -60z m-396 -15 c13 -16 12 -17 -3 -4 -10 7 -18 15
-18 17 0 8 8 3 21 -13z m3126 -11 c-10 -10 -14 -22 -10 -27 5 -4 2 -5 -5 -1
-11 6 -10 12 4 27 9 10 19 19 22 19 3 0 -2 -8 -11 -18z m-7080 -54 c-3 -8 -6
-5 -6 6 -1 11 2 17 5 13 3 -3 4 -12 1 -19z m921 -9 c-3 -8 -7 -3 -11 10 -4 17
-3 21 5 13 5 -5 8 -16 6 -23z m219 15 c-3 -3 -12 -4 -19 -1 -8 3 -5 6 6 6 11
1 17 -2 13 -5z m-1110 -26 c-3 -8 -6 -5 -6 6 -1 11 2 17 5 13 3 -3 4 -12 1
-19z m1301 15 c-10 -2 -28 -2 -40 0 -13 2 -5 4 17 4 22 1 32 -1 23 -4z m679
-25 c-3 -8 -6 -5 -6 6 -1 11 2 17 5 13 3 -3 4 -12 1 -19z m296 15 c-7 -2 -21
-2 -30 0 -10 3 -4 5 12 5 17 0 24 -2 18 -5z m5294 -15 c-3 -8 -6 -5 -6 6 -1
11 2 17 5 13 3 -3 4 -12 1 -19z m-5170 6 c-3 -3 -12 -4 -19 -1 -8 3 -5 6 6 6
11 1 17 -2 13 -5z m-1480 -36 c-3 -8 -6 -5 -6 6 -1 11 2 17 5 13 3 -3 4 -12 1
-19z m2824 -5 c13 -16 12 -17 -3 -4 -10 7 -18 15 -18 17 0 8 8 3 21 -13z
m-3784 -15 c-3 -8 -6 -5 -6 6 -1 11 2 17 5 13 3 -3 4 -12 1 -19z m2050 -25
c-3 -10 -5 -2 -5 17 0 19 2 27 5 18 2 -10 2 -26 0 -35z m-2020 5 c-3 -8 -6 -5
-6 6 -1 11 2 17 5 13 3 -3 4 -12 1 -19z m890 -30 c-3 -8 -6 -5 -6 6 -1 11 2
17 5 13 3 -3 4 -12 1 -19z m-930 -40 c-3 -8 -6 -5 -6 6 -1 11 2 17 5 13 3 -3
4 -12 1 -19z m960 0 c-3 -8 -6 -5 -6 6 -1 11 2 17 5 13 3 -3 4 -12 1 -19z
m-930 -30 c-3 -8 -6 -5 -6 6 -1 11 2 17 5 13 3 -3 4 -12 1 -19z m1990 -10 c-3
-7 -5 -2 -5 12 0 14 2 19 5 13 2 -7 2 -19 0 -25z m5620 0 c-3 -8 -6 -5 -6 6
-1 11 2 17 5 13 3 -3 4 -12 1 -19z m-5590 -55 c-3 -10 -5 -4 -5 12 0 17 2 24
5 18 2 -7 2 -21 0 -30z m3400 31 c-3 -3 -12 -4 -19 -1 -8 3 -5 6 6 6 11 1 17
-2 13 -5z m2160 -16 c-3 -8 -6 -5 -6 6 -1 11 2 17 5 13 3 -3 4 -12 1 -19z
m-6334 -5 c-7 -2 -19 -2 -25 0 -7 3 -2 5 12 5 14 0 19 -2 13 -5z m-1286 -35
c-3 -7 -5 -2 -5 12 0 14 2 19 5 13 2 -7 2 -19 0 -25z m1436 25 c-7 -2 -21 -2
-30 0 -10 3 -4 5 12 5 17 0 24 -2 18 -5z m412 -3 c3 -5 -1 -10 -9 -10 -9 0
-16 5 -16 10 0 6 4 10 9 10 6 0 13 -4 16 -10z m-137 -7 c-16 -2 -40 -2 -55 0
-16 2 -3 4 27 4 30 0 43 -2 28 -4z m555 -10 c-7 -2 -19 -2 -25 0 -7 3 -2 5 12
5 14 0 19 -2 13 -5z m-2966 -25 c-3 -8 -6 -5 -6 6 -1 11 2 17 5 13 3 -3 4 -12
1 -19z m3140 16 c-3 -3 -12 -4 -19 -1 -8 3 -5 6 6 6 11 1 17 -2 13 -5z m-2410
-36 c-3 -7 -5 -2 -5 12 0 14 2 19 5 13 2 -7 2 -19 0 -25z m3240 -45 c-2 -16
-4 -5 -4 22 0 28 2 40 4 28 2 -13 2 -35 0 -50z m4390 35 c-3 -7 -5 -2 -5 12 0
14 2 19 5 13 2 -7 2 -19 0 -25z m700 -10 c-3 -8 -6 -5 -6 6 -1 11 2 17 5 13 3
-3 4 -12 1 -19z m-4996 -15 c13 -16 12 -17 -3 -4 -17 13 -22 21 -14 21 2 0 10
-8 17 -17z m4266 -20 c-3 -10 -5 -4 -5 12 0 17 2 24 5 18 2 -7 2 -21 0 -30z
m-7117 -58 c30 -30 52 -55 49 -55 -2 0 -29 25 -59 55 -30 30 -52 55 -49 55 2
0 29 -25 59 -55z m-523 -2 c-3 -10 -5 -4 -5 12 0 17 2 24 5 18 2 -7 2 -21 0
-30z m5470 31 c-3 -3 -12 -4 -19 -1 -8 3 -5 6 6 6 11 1 17 -2 13 -5z m-6170
-41 c-3 -10 -5 -4 -5 12 0 17 2 24 5 18 2 -7 2 -21 0 -30z m6000 21 c-3 -3
-12 -4 -19 -1 -8 3 -5 6 6 6 11 1 17 -2 13 -5z m-2160 -10 c-3 -3 -12 -4 -19
-1 -8 3 -5 6 6 6 11 1 17 -2 13 -5z m818 -4 c-3 -5 -12 -10 -18 -10 -7 0 -6 4
3 10 19 12 23 12 15 0z m1142 -6 c-3 -3 -12 -4 -19 -1 -8 3 -5 6 6 6 11 1 17
-2 13 -5z m310 0 c-3 -3 -12 -4 -19 -1 -8 3 -5 6 6 6 11 1 17 -2 13 -5z
m-2030 -10 c-3 -3 -12 -4 -19 -1 -8 3 -5 6 6 6 11 1 17 -2 13 -5z m1606 -1
c-7 -2 -19 -2 -25 0 -7 3 -2 5 12 5 14 0 19 -2 13 -5z m-140 -10 c-7 -2 -19
-2 -25 0 -7 3 -2 5 12 5 14 0 19 -2 13 -5z m284 -9 c-3 -3 -12 -4 -19 -1 -8 3
-5 6 6 6 11 1 17 -2 13 -5z m3250 -41 c-3 -10 -5 -2 -5 17 0 19 2 27 5 18 2
-10 2 -26 0 -35z m-8350 -30 c-2 -16 -4 -5 -4 22 0 28 2 40 4 28 2 -13 2 -35
0 -50z m3326 60 c-7 -2 -19 -2 -25 0 -7 3 -2 5 12 5 14 0 19 -2 13 -5z m1654
1 c-3 -3 -12 -4 -19 -1 -8 3 -5 6 6 6 11 1 17 -2 13 -5z m2670 -46 c-2 -13 -4
-5 -4 17 -1 22 1 32 4 23 2 -10 2 -28 0 -40z m-4440 36 c-3 -3 -12 -4 -19 -1
-8 3 -5 6 6 6 11 1 17 -2 13 -5z m236 -1 c-7 -2 -19 -2 -25 0 -7 3 -2 5 12 5
14 0 19 -2 13 -5z m1394 1 c-3 -3 -12 -4 -19 -1 -8 3 -5 6 6 6 11 1 17 -2 13
-5z m-5256 -21 c13 -16 12 -17 -3 -4 -17 13 -22 21 -14 21 2 0 10 -8 17 -17z
m5126 11 c-3 -3 -12 -4 -19 -1 -8 3 -5 6 6 6 11 1 17 -2 13 -5z m2910 -111
c-2 -16 -4 -3 -4 27 0 30 2 43 4 28 2 -16 2 -40 0 -55z m-8017 32 c13 -14 21
-25 18 -25 -2 0 -15 11 -28 25 -13 14 -21 25 -18 25 2 0 15 -11 28 -25z m7117
-187 c-2 -35 -3 -7 -3 62 0 69 1 97 3 63 2 -35 2 -91 0 -125z m-7031 140 l29
-33 -32 29 c-31 28 -38 36 -30 36 2 0 16 -15 33 -32z m729 -8 c3 -6 -1 -7 -9
-4 -18 7 -21 14 -7 14 6 0 13 -4 16 -10z m3105 -107 c0 -8 -9 0 -50 45 l-45
47 48 -45 c26 -24 47 -45 47 -47z m-2751 -158 c135 -68 335 -135 481 -163 210
-41 299 -46 655 -42 694 10 809 3 996 -56 297 -93 518 -305 700 -670 l61 -121
-54 -128 c-29 -70 -57 -127 -62 -127 -4 1 -23 37 -41 81 -144 359 -426 537
-920 581 -66 5 -313 15 -550 20 -458 10 -581 21 -765 66 -375 93 -617 286
-786 628 -30 60 -54 115 -54 122 0 8 49 -19 113 -60 61 -41 163 -100 226 -131z
m7261 201 c0 -2 -8 -10 -17 -17 -16 -13 -17 -12 -4 4 13 16 21 21 21 13z
m-8280 -31 c13 -14 21 -25 18 -25 -2 0 -15 11 -28 25 -13 14 -21 25 -18 25 2
0 15 -11 28 -25z m61 -12 c13 -16 12 -17 -3 -4 -17 13 -22 21 -14 21 2 0 10
-8 17 -17z m1116 -55 c-2 -13 -4 -5 -4 17 -1 22 1 32 4 23 2 -10 2 -28 0 -40z
m7093 39 c0 -1 -30 -32 -67 -67 l-68 -65 65 68 c60 62 70 72 70 64z m-403 -79
c-2 -13 -4 -3 -4 22 0 25 2 35 4 23 2 -13 2 -33 0 -45z m-4046 35 c13 -16 12
-17 -3 -4 -10 7 -18 15 -18 17 0 8 8 3 21 -13z m649 3 c0 -2 -8 -10 -17 -17
-16 -13 -17 -12 -4 4 13 16 21 21 21 13z m-3320 -81 c0 -25 -3 -45 -8 -45 -4
0 -6 20 -4 45 2 25 6 45 8 45 2 0 4 -20 4 -45z m-903 -2 c-3 -10 -5 -4 -5 12
0 17 2 24 5 18 2 -7 2 -21 0 -30z m1556 30 c-7 -2 -19 -2 -25 0 -7 3 -2 5 12
5 14 0 19 -2 13 -5z m330 -10 c-24 -2 -62 -2 -85 0 -24 2 -5 4 42 4 47 0 66
-2 43 -4z m280 0 c-23 -2 -64 -2 -90 0 -26 2 -7 3 42 3 50 0 71 -1 48 -3z
m250 0 c-18 -2 -48 -2 -65 0 -18 2 -4 4 32 4 36 0 50 -2 33 -4z m5234 -25 c-3
-7 -5 -2 -5 12 0 14 2 19 5 13 2 -7 2 -19 0 -25z m-5050 16 c-3 -3 -12 -4 -19
-1 -8 3 -5 6 6 6 11 1 17 -2 13 -5z m5263 3 c0 -2 -10 -12 -22 -23 l-23 -19
19 23 c18 21 26 27 26 19z m487 -34 c-3 -10 -5 -4 -5 12 0 17 2 24 5 18 2 -7
2 -21 0 -30z m-5660 21 c-3 -3 -12 -4 -19 -1 -8 3 -5 6 6 6 11 1 17 -2 13 -5z
m-2690 -76 c-3 -8 -6 -5 -6 6 -1 11 2 17 5 13 3 -3 4 -12 1 -19z m-730 -20
c-3 -7 -5 -2 -5 12 0 14 2 19 5 13 2 -7 2 -19 0 -25z m6310 -50 c-2 -13 -4 -5
-4 17 -1 22 1 32 4 23 2 -10 2 -28 0 -40z m-5610 10 c-3 -7 -5 -2 -5 12 0 14
2 19 5 13 2 -7 2 -19 0 -25z m2136 -51 l62 -3 -67 -2 -68 -2 2 43 1 42 4 -37
4 -37 62 -4z m4574 36 c-3 -10 -5 -4 -5 12 0 17 2 24 5 18 2 -7 2 -21 0 -30z
m930 -20 c-3 -10 -5 -2 -5 17 0 19 2 27 5 18 2 -10 2 -26 0 -35z m730 -15 c-3
-7 -5 -2 -5 12 0 14 2 19 5 13 2 -7 2 -19 0 -25z m-1630 -25 c-3 -10 -5 -4 -5
12 0 17 2 24 5 18 2 -7 2 -21 0 -30z m-5160 21 c-3 -3 -12 -4 -19 -1 -8 3 -5
6 6 6 11 1 17 -2 13 -5z m1036 -1 c-7 -2 -19 -2 -25 0 -7 3 -2 5 12 5 14 0 19
-2 13 -5z m-2576 -35 c-3 -7 -5 -2 -5 12 0 14 2 19 5 13 2 -7 2 -19 0 -25z
m1851 25 c-27 -2 -69 -2 -95 0 -27 2 -5 3 47 3 52 0 74 -1 48 -3z m-2581 -35
c-3 -7 -5 -2 -5 12 0 14 2 19 5 13 2 -7 2 -19 0 -25z m1354 5 c13 -16 12 -17
-3 -4 -10 7 -18 15 -18 17 0 8 8 3 21 -13z m2616 -120 c-2 -27 -3 -5 -3 47 0
52 1 74 3 48 2 -27 2 -69 0 -95z m-3270 85 c-3 -7 -5 -2 -5 12 0 14 2 19 5 13
2 -7 2 -19 0 -25z m7620 -15 c-3 -10 -5 -2 -5 17 0 19 2 27 5 18 2 -10 2 -26
0 -35z m-4207 -60 c0 -8 -9 0 -50 45 l-45 47 48 -45 c26 -24 47 -45 47 -47z
m3277 25 c-3 -7 -5 -2 -5 12 0 14 2 19 5 13 2 -7 2 -19 0 -25z m1660 10 c-3
-8 -6 -5 -6 6 -1 11 2 17 5 13 3 -3 4 -12 1 -19z m-700 -20 c-3 -8 -6 -5 -6 6
-1 11 2 17 5 13 3 -3 4 -12 1 -19z m-7610 -10 c-3 -8 -6 -5 -6 6 -1 11 2 17 5
13 3 -3 4 -12 1 -19z m6680 -20 c-3 -8 -6 -5 -6 6 -1 11 2 17 5 13 3 -3 4 -12
1 -19z m-6710 -10 c-3 -8 -6 -5 -6 6 -1 11 2 17 5 13 3 -3 4 -12 1 -19z m784
-5 c13 -16 12 -17 -3 -4 -10 7 -18 15 -18 17 0 8 8 3 21 -13z m6816 -35 c-3
-8 -6 -5 -6 6 -1 11 2 17 5 13 3 -3 4 -12 1 -19z m-8290 -10 c-3 -8 -6 -5 -6
6 -1 11 2 17 5 13 3 -3 4 -12 1 -19z m730 -20 c-3 -8 -6 -5 -6 6 -1 11 2 17 5
13 3 -3 4 -12 1 -19z m6630 -10 c-3 -8 -6 -5 -6 6 -1 11 2 17 5 13 3 -3 4 -12
1 -19z m-3317 -63 c30 -30 52 -55 49 -55 -2 0 -29 25 -59 55 -30 30 -52 55
-49 55 2 0 29 -25 59 -55z m3347 33 c-3 -8 -6 -5 -6 6 -1 11 2 17 5 13 3 -3 4
-12 1 -19z m-2780 -34 c-3 -3 -12 -4 -19 -1 -8 3 -5 6 6 6 11 1 17 -2 13 -5z
m2740 -46 c-3 -8 -6 -5 -6 6 -1 11 2 17 5 13 3 -3 4 -12 1 -19z m-5675 -18
c-2 -16 -6 -30 -8 -30 -2 0 -4 14 -4 30 0 17 4 30 8 30 5 0 7 -13 4 -30z m-35
-52 c-3 -8 -6 -5 -6 6 -1 11 2 17 5 13 3 -3 4 -12 1 -19z m-1594 -28 c-3 -11
-7 -20 -9 -20 -2 0 -4 9 -4 20 0 11 4 20 9 20 5 0 7 -9 4 -20z m2234 -6 c-3
-3 -12 -4 -19 -1 -8 3 -5 6 6 6 11 1 17 -2 13 -5z m126 -11 c-7 -2 -19 -2 -25
0 -7 3 -2 5 12 5 14 0 19 -2 13 -5z m530 -10 c-23 -2 -64 -2 -90 0 -26 2 -7 3
42 3 50 0 71 -1 48 -3z m-1286 -25 c-3 -8 -6 -5 -6 6 -1 11 2 17 5 13 3 -3 4
-12 1 -19z m1566 15 c-7 -2 -21 -2 -30 0 -10 3 -4 5 12 5 17 0 24 -2 18 -5z
m114 -9 c-3 -3 -12 -4 -19 -1 -8 3 -5 6 6 6 11 1 17 -2 13 -5z m-560 -56 c-3
-8 -6 -5 -6 6 -1 11 2 17 5 13 3 -3 4 -12 1 -19z m-30 -20 c-3 -8 -6 -5 -6 6
-1 11 2 17 5 13 3 -3 4 -12 1 -19z m-2462 -108 c10 -11 16 -20 13 -20 -3 0
-13 9 -23 20 -10 11 -16 20 -13 20 3 0 13 -9 23 -20z m2472 -2 c-3 -8 -6 -5
-6 6 -1 11 2 17 5 13 3 -3 4 -12 1 -19z m5500 -10 c-3 -7 -5 -2 -5 12 0 14 2
19 5 13 2 -7 2 -19 0 -25z m-4319 -44 c-3 -27 -4 -26 -9 8 -3 22 -1 34 4 29 5
-5 7 -21 5 -37z m-581 30 c-3 -3 -12 -4 -19 -1 -8 3 -5 6 6 6 11 1 17 -2 13
-5z m4750 0 c-3 -3 -12 -4 -19 -1 -8 3 -5 6 6 6 11 1 17 -2 13 -5z m421 -1
c-10 -2 -26 -2 -35 0 -10 3 -2 5 17 5 19 0 27 -2 18 -5z m-2571 -19 c-3 -3
-12 -4 -19 -1 -8 3 -5 6 6 6 11 1 17 -2 13 -5z m-5607 -69 c35 -36 62 -65 59
-65 -2 0 -34 29 -69 65 -35 36 -62 65 -59 65 2 0 34 -29 69 -65z m8090 56 c23
-6 19 -10 -41 -40 -140 -69 -282 -207 -432 -419 -38 -54 -144 -216 -237 -362
-284 -446 -449 -660 -719 -931 -566 -565 -1192 -919 -1822 -1029 -155 -27
-432 -37 -578 -21 -405 44 -754 193 -1101 469 -128 101 -381 357 -511 517
-117 144 -222 286 -215 293 3 2 51 -38 108 -89 288 -259 612 -477 887 -598
609 -269 1193 -258 1772 31 285 142 527 319 800 585 262 255 439 470 686 833
189 277 243 349 328 439 227 239 472 327 915 329 74 0 146 -3 160 -7z m-5643
-23 c-3 -8 -6 -5 -6 6 -1 11 2 17 5 13 3 -3 4 -12 1 -19z m1020 6 c-3 -3 -12
-4 -19 -1 -8 3 -5 6 6 6 11 1 17 -2 13 -5z m4953 -8 c0 -2 -8 -10 -17 -17 -16
-13 -17 -12 -4 4 13 16 21 21 21 13z m-5093 -12 c-3 -3 -12 -4 -19 -1 -8 3 -5
6 6 6 11 1 17 -2 13 -5z m5043 3 c0 -2 -10 -12 -22 -23 l-23 -19 19 23 c18 21
26 27 26 19z m-5953 -29 c-3 -8 -6 -5 -6 6 -1 11 2 17 5 13 3 -3 4 -12 1 -19z
m1010 16 c-3 -3 -12 -4 -19 -1 -8 3 -5 6 6 6 11 1 17 -2 13 -5z m126 -11 c-7
-2 -19 -2 -25 0 -7 3 -2 5 12 5 14 0 19 -2 13 -5z m735 0 c-16 -2 -40 -2 -55
0 -16 2 -3 4 27 4 30 0 43 -2 28 -4z m230 0 c-16 -2 -40 -2 -55 0 -16 2 -3 4
27 4 30 0 43 -2 28 -4z m-365 -30 c-13 -2 -33 -2 -45 0 -13 2 -3 4 22 4 25 0
35 -2 23 -4z m-4043 -28 c13 -14 21 -25 18 -25 -2 0 -15 11 -28 25 -13 14 -21
25 -18 25 2 0 15 -11 28 -25z m2347 -7 c-3 -8 -6 -5 -6 6 -1 11 2 17 5 13 3
-3 4 -12 1 -19z m5883 9 c0 -2 -15 -16 -32 -33 l-33 -29 29 33 c28 30 36 37
36 29z m-90 -40 c0 -2 -12 -14 -27 -28 l-28 -24 24 28 c23 25 31 32 31 24z
m-8119 -24 c13 -16 12 -17 -3 -4 -10 7 -18 15 -18 17 0 8 8 3 21 -13z m3496
-15 c-3 -8 -6 -5 -6 6 -1 11 2 17 5 13 3 -3 4 -12 1 -19z m-1160 -20 c-3 -8
-6 -5 -6 6 -1 11 2 17 5 13 3 -3 4 -12 1 -19z m1130 -50 c-2 -13 -4 -3 -4 22
0 25 2 35 4 23 2 -13 2 -33 0 -45z m3473 39 c0 -1 -26 -27 -57 -57 l-58 -55
55 58 c50 53 60 62 60 54z m1150 -1 c0 -2 -8 -10 -17 -17 -16 -13 -17 -12 -4
4 13 16 21 21 21 13z m-60 -10 c0 -2 -8 -10 -17 -17 -16 -13 -17 -12 -4 4 13
16 21 21 21 13z m-383 -88 c0 -13 -1 -17 -4 -10 -3 6 -10 9 -16 5 -7 -4 -6 1
2 10 17 21 17 21 18 -5z m-4140 -125 c-3 -10 -5 -2 -5 17 0 19 2 27 5 18 2
-10 2 -26 0 -35z m-30 -45 c-3 -8 -6 -5 -6 6 -1 11 2 17 5 13 3 -3 4 -12 1
-19z m-1887 -79 c-12 -8 -8 -10 17 -7 18 3 30 1 28 -2 -6 -10 45 -31 57 -24 6
4 8 2 4 -4 -6 -11 10 -26 29 -27 6 0 9 -9 7 -19 -2 -10 1 -15 6 -12 6 3 10
-88 11 -235 1 -132 5 -248 8 -257 4 -15 3 -15 -7 -2 -10 13 -11 11 -7 -8 3
-13 1 -20 -5 -16 -5 3 -8 -2 -6 -12 2 -10 -1 -19 -7 -19 -18 -1 -35 -16 -29
-26 3 -5 2 -9 -3 -8 -15 4 -63 -13 -58 -20 2 -4 -42 -6 -98 -4 -123 3 -146 6
-140 16 2 4 -1 8 -6 8 -21 3 -26 4 -39 12 -7 5 -10 12 -8 16 3 4 -1 25 -9 47
-26 73 -25 74 64 74 71 0 80 -2 86 -20 8 -25 40 -43 64 -35 19 6 31 43 31 96
l0 29 -27 -17 c-18 -12 -42 -17 -80 -15 -77 3 -102 6 -100 12 3 9 -41 48 -48
42 -3 -4 -3 2 1 12 5 12 4 17 -3 13 -7 -4 -10 48 -11 158 0 96 4 163 9 159 8
-5 13 9 10 29 0 4 2 6 7 5 13 -3 72 38 65 46 -4 4 1 4 11 0 12 -5 17 -4 13 2
-4 6 7 9 26 6 25 -3 29 -1 17 7 -11 8 5 11 60 11 55 0 71 -3 60 -11z m804 -5
c3 -8 2 -12 -4 -9 -6 3 -10 10 -10 16 0 14 7 11 14 -7z m186 5 c-12 -8 -8 -10
17 -7 18 3 30 1 28 -2 -6 -10 45 -31 57 -24 6 4 8 2 4 -4 -6 -11 10 -26 29
-27 6 0 9 -9 7 -19 -2 -10 1 -15 7 -12 6 4 10 -87 10 -259 0 -195 -3 -264 -11
-259 -8 5 -9 1 -4 -12 4 -10 4 -15 0 -11 -10 9 -45 -23 -38 -35 3 -4 2 -8 -3
-7 -18 3 -34 -1 -30 -8 6 -10 -22 -13 -145 -16 -58 -2 -94 1 -91 7 4 5 -3 7
-15 4 -13 -4 -20 -2 -19 6 1 6 -7 11 -18 11 -13 0 -20 7 -20 20 0 11 -5 19
-12 18 -8 -2 -10 4 -6 14 4 10 2 14 -4 10 -7 -5 -9 1 -5 15 3 12 1 19 -5 15
-5 -4 -8 6 -5 24 l4 29 79 0 c74 0 80 -2 88 -24 12 -29 36 -39 63 -25 17 9 18
13 7 20 -10 6 -11 9 -1 9 6 0 12 11 12 25 0 14 -6 25 -12 25 -7 0 -5 5 5 11 9
5 17 14 17 20 0 5 -12 2 -27 -8 -18 -12 -42 -17 -80 -15 -76 3 -102 6 -97 11
7 7 -38 51 -47 45 -5 -3 -6 3 -2 12 4 10 2 15 -3 11 -6 -3 -11 51 -13 136 -1
78 -5 146 -8 151 -4 5 0 6 7 1 10 -6 12 -3 8 13 -4 12 -2 20 2 17 9 -5 27 21
29 39 0 6 6 11 13 13 25 5 119 40 125 47 3 3 31 6 62 6 42 0 52 -3 41 -11z
m-1448 -22 c4 -7 8 -162 8 -344 l0 -333 -90 0 -90 0 0 255 0 255 -60 0 -60 0
0 50 c0 41 3 50 18 50 15 0 15 2 2 11 -12 8 -10 9 8 4 28 -8 64 3 56 17 -5 7
-2 8 5 4 13 -9 51 20 51 38 0 15 143 8 152 -7z m243 3 c3 -5 1 -10 -4 -10 -6
0 -11 5 -11 10 0 6 2 10 4 10 3 0 8 -4 11 -10z m845 -60 c0 -67 -1 -70 -26
-76 -14 -4 -70 -4 -125 -2 l-99 5 0 -43 c0 -43 0 -43 27 -33 33 12 174 8 165
-5 -3 -5 3 -6 14 -2 10 4 15 4 11 0 -9 -9 33 -55 44 -48 5 3 6 -3 2 -12 -4
-11 -2 -15 4 -11 7 4 9 -39 6 -131 -4 -164 -6 -182 -16 -175 -5 3 -7 -1 -5 -9
2 -7 0 -13 -3 -13 -14 0 -48 -38 -42 -48 3 -5 1 -7 -5 -4 -12 8 -44 -2 -38
-12 3 -4 -41 -6 -97 -4 -131 3 -156 6 -149 17 3 5 -3 6 -14 2 -10 -4 -15 -4
-11 0 3 4 -7 22 -23 41 -17 18 -30 38 -30 44 0 6 -3 8 -7 6 -7 -4 -9 64 -4
111 1 8 25 12 85 12 l83 0 6 -46 c6 -60 27 -82 62 -66 24 11 25 14 25 111 0
117 -4 131 -37 131 -13 0 -21 -4 -18 -10 3 -6 -1 -7 -9 -4 -11 4 -16 0 -16
-15 0 -20 -5 -21 -80 -21 l-80 0 0 190 0 190 200 0 200 0 0 -70z m17 48 c-3
-8 -6 -5 -6 6 -1 11 2 17 5 13 3 -3 4 -12 1 -19z m1280 -35 c-3 -10 -5 -4 -5
12 0 17 2 24 5 18 2 -7 2 -21 0 -30z m-30 -55 c-3 -7 -5 -2 -5 12 0 14 2 19 5
13 2 -7 2 -19 0 -25z m-2187 -83 c0 -30 -3 -55 -7 -55 -5 0 -6 25 -5 55 5 71
12 71 12 0z m2227 -22 c-3 -10 -5 -4 -5 12 0 17 2 24 5 18 2 -7 2 -21 0 -30z
m-2578 0 c-1 -23 -2 -24 -6 -6 -4 18 -12 23 -51 26 l-47 3 53 2 c51 2 52 1 51
-25z m3908 -49 c-3 -3 -12 -4 -19 -1 -8 3 -5 6 6 6 11 1 17 -2 13 -5z m-3560
-51 c-3 -10 -5 -4 -5 12 0 17 2 24 5 18 2 -7 2 -21 0 -30z m-350 -240 c-2 -32
-3 -6 -3 57 0 63 1 89 3 58 2 -32 2 -84 0 -115z m966 160 c-7 -2 -21 -2 -30 0
-10 3 -4 5 12 5 17 0 24 -2 18 -5z m2614 -80 c-3 -10 -5 -2 -5 17 0 19 2 27 5
18 2 -10 2 -26 0 -35z m-1765 -65 c2 -21 0 -38 -4 -38 -4 0 -7 24 -7 53 1 54
5 49 11 -15z m1795 20 c-3 -7 -5 -2 -5 12 0 14 2 19 5 13 2 -7 2 -19 0 -25z
m-2230 16 c-3 -3 -12 -4 -19 -1 -8 3 -5 6 6 6 11 1 17 -2 13 -5z m-2226 -31
c13 -16 12 -17 -3 -4 -10 7 -18 15 -18 17 0 8 8 3 21 -13z m1459 -19 c0 -8
-19 -13 -24 -6 -3 5 1 9 9 9 8 0 15 -2 15 -3z m3230 -27 c0 -2 -15 -16 -32
-33 l-33 -29 29 33 c28 30 36 37 36 29z m1440 -1 c0 -2 -8 -10 -17 -17 -16
-13 -17 -12 -4 4 13 16 21 21 21 13z m-6035 -56 c27 -27 47 -50 44 -50 -3 0
-27 23 -54 50 -27 28 -47 50 -44 50 3 0 27 -22 54 -50z m4322 18 c-3 -8 -6 -5
-6 6 -1 11 2 17 5 13 3 -3 4 -12 1 -19z m-1400 6 c-3 -3 -12 -4 -19 -1 -8 3
-5 6 6 6 11 1 17 -2 13 -5z m-210 -10 c-3 -3 -12 -4 -19 -1 -8 3 -5 6 6 6 11
1 17 -2 13 -5z m336 -1 c-7 -2 -19 -2 -25 0 -7 3 -2 5 12 5 14 0 19 -2 13 -5z
m-246 -9 c-3 -3 -12 -4 -19 -1 -8 3 -5 6 6 6 11 1 17 -2 13 -5z m100 -10 c-3
-3 -12 -4 -19 -1 -8 3 -5 6 6 6 11 1 17 -2 13 -5z m1596 -1 c-7 -2 -21 -2 -30
0 -10 3 -4 5 12 5 17 0 24 -2 18 -5z m1487 3 c0 -2 -8 -10 -17 -17 -16 -13
-17 -12 -4 4 13 16 21 21 21 13z m-1702 -13 c-21 -2 -55 -2 -75 0 -21 2 -4 4
37 4 41 0 58 -2 38 -4z m-4198 -110 c0 -8 -9 0 -50 45 l-45 47 48 -45 c26 -24
47 -45 47 -47z m4307 81 c-3 -3 -12 -4 -19 -1 -8 3 -5 6 6 6 11 1 17 -2 13 -5z
m3293 2 c0 -2 -8 -10 -17 -17 -16 -13 -17 -12 -4 4 13 16 21 21 21 13z m-1760
-30 c0 -2 -8 -10 -17 -17 -16 -13 -17 -12 -4 4 13 16 21 21 21 13z m-1613 -28
c-3 -8 -6 -5 -6 6 -1 11 2 17 5 13 3 -3 4 -12 1 -19z m-4186 -15 c13 -16 12
-17 -3 -4 -10 7 -18 15 -18 17 0 8 8 3 21 -13z m4309 14 c0 -2 -10 -12 -22
-23 l-23 -19 19 23 c18 21 26 27 26 19z m-93 -29 c-3 -8 -6 -5 -6 6 -1 11 2
17 5 13 3 -3 4 -12 1 -19z m3273 9 c0 -1 -30 -32 -67 -67 l-68 -65 65 68 c60
62 70 72 70 64z m-1770 -40 c0 -2 -17 -19 -37 -38 l-38 -34 34 38 c33 34 41
42 41 34z m-2803 -219 c-2 -29 -3 -8 -3 47 0 55 1 79 3 53 2 -26 2 -71 0 -100z
m4463 109 c0 -2 -10 -12 -22 -23 l-23 -19 19 23 c18 21 26 27 26 19z m-900
-21 c0 -2 -8 -10 -17 -17 -16 -13 -17 -12 -4 4 13 16 21 21 21 13z m-4240 -21
c0 -8 -4 -15 -10 -15 -5 0 -7 7 -4 15 4 8 8 15 10 15 2 0 4 -7 4 -15z m2980
11 c0 -2 -8 -10 -17 -17 -16 -13 -17 -12 -4 4 13 16 21 21 21 13z m-1953 -88
c-3 -8 -6 -5 -6 6 -1 11 2 17 5 13 3 -3 4 -12 1 -19z m3143 19 c0 -2 -10 -12
-22 -23 l-23 -19 19 23 c18 21 26 27 26 19z m-920 -20 c0 -2 -17 -19 -37 -38
l-38 -34 34 38 c33 34 41 42 41 34z m-3309 -34 c13 -16 12 -17 -3 -4 -17 13
-22 21 -14 21 2 0 10 -8 17 -17z m2933 -1 c3 -5 -1 -9 -9 -9 -8 0 -12 4 -9 9
3 4 7 8 9 8 2 0 6 -4 9 -8z m-1837 -74 c-3 -7 -5 -2 -5 12 0 14 2 19 5 13 2
-7 2 -19 0 -25z m-30 -20 c-3 -7 -5 -2 -5 12 0 14 2 19 5 13 2 -7 2 -19 0 -25z
m-947 16 c0 -8 -19 -13 -24 -6 -3 5 1 9 9 9 8 0 15 -2 15 -3z m3070 2 c0 -2
-8 -10 -17 -17 -16 -13 -17 -12 -4 4 13 16 21 21 21 13z m920 1 c0 -1 -26 -27
-57 -57 l-58 -55 55 58 c50 53 60 62 60 54z m-1310 -41 c0 -2 -8 -10 -17 -17
-16 -13 -17 -12 -4 4 13 16 21 21 21 13z m-1686 -22 c3 -8 2 -12 -4 -9 -6 3
-10 10 -10 16 0 14 7 11 14 -7z m3926 12 c0 -2 -8 -10 -17 -17 -16 -13 -17
-12 -4 4 13 16 21 21 21 13z m-4223 -12 c-3 -3 -12 -4 -19 -1 -8 3 -5 6 6 6
11 1 17 -2 13 -5z m90 -10 c-3 -3 -12 -4 -19 -1 -8 3 -5 6 6 6 11 1 17 -2 13
-5z m-2826 -31 c13 -16 12 -17 -3 -4 -10 7 -18 15 -18 17 0 8 8 3 21 -13z
m6899 -17 c0 -2 -8 -10 -17 -17 -16 -13 -17 -12 -4 4 13 16 21 21 21 13z
m-6830 -61 c13 -14 21 -25 18 -25 -2 0 -15 11 -28 25 -13 14 -21 25 -18 25 2
0 15 -11 28 -25z m1911 -2 c13 -16 12 -17 -3 -4 -17 13 -22 21 -14 21 2 0 10
-8 17 -17z m3849 -6 c0 -2 -12 -14 -27 -28 l-28 -24 24 28 c23 25 31 32 31 24z
m1000 -10 c0 -2 -15 -16 -32 -33 l-33 -29 29 33 c28 30 36 37 36 29z m-4785
-57 c10 -11 16 -20 13 -20 -3 0 -13 9 -23 20 -10 11 -16 20 -13 20 3 0 13 -9
23 -20z m3695 -14 c0 -2 -8 -10 -17 -17 -16 -13 -17 -12 -4 4 13 16 21 21 21
13z m-5495 -96 c49 -49 87 -90 85 -90 -3 0 -46 41 -95 90 -49 50 -87 90 -85
90 3 0 46 -40 95 -90z m486 33 c13 -16 12 -17 -3 -4 -17 13 -22 21 -14 21 2 0
10 -8 17 -17z m4939 3 c0 -2 -8 -10 -17 -17 -16 -13 -17 -12 -4 4 13 16 21 21
21 13z m-4939 -53 c13 -16 12 -17 -3 -4 -17 13 -22 21 -14 21 2 0 10 -8 17
-17z m50 -10 c13 -16 12 -17 -3 -4 -10 7 -18 15 -18 17 0 8 8 3 21 -13z m5349
-6 c0 -2 -10 -12 -22 -23 l-23 -19 19 23 c18 21 26 27 26 19z m-5339 -54 c13
-16 12 -17 -3 -4 -10 7 -18 15 -18 17 0 8 8 3 21 -13z m54 -13 c10 -11 16 -20
13 -20 -3 0 -13 9 -23 20 -10 11 -16 20 -13 20 3 0 13 -9 23 -20z m5275 7 c0
-2 -10 -12 -22 -23 l-23 -19 19 23 c18 21 26 27 26 19z m440 -10 c0 -2 -15
-16 -32 -33 l-33 -29 29 33 c28 30 36 37 36 29z m-3483 -29 c-3 -8 -6 -5 -6 6
-1 11 2 17 5 13 3 -3 4 -12 1 -19z m2399 13 c-4 -5 0 -11 6 -14 7 -3 3 -4 -9
-4 -17 1 -19 4 -11 14 12 15 22 18 14 4z m584 6 c0 -2 -12 -14 -27 -28 l-28
-24 24 28 c23 25 31 32 31 24z m-2713 -13 c-3 -3 -12 -4 -19 -1 -8 3 -5 6 6 6
11 1 17 -2 13 -5z m-300 -26 c-3 -8 -6 -5 -6 6 -1 11 2 17 5 13 3 -3 4 -12 1
-19z m406 15 c-7 -2 -19 -2 -25 0 -7 3 -2 5 12 5 14 0 19 -2 13 -5z m240 0
c-7 -2 -19 -2 -25 0 -7 3 -2 5 12 5 14 0 19 -2 13 -5z m-3268 -33 c10 -11 16
-20 13 -20 -3 0 -13 9 -23 20 -10 11 -16 20 -13 20 3 0 13 -9 23 -20z m451
-12 l29 -33 -32 29 c-31 28 -38 36 -30 36 2 0 16 -15 33 -32z m1459 2 c10 -11
16 -20 13 -20 -3 0 -13 9 -23 20 -10 11 -16 20 -13 20 3 0 13 -9 23 -20z
m-1320 -100 c49 -49 87 -90 85 -90 -3 0 -46 41 -95 90 -49 50 -87 90 -85 90 3
0 46 -40 95 -90z m5015 87 c0 -1 -51 -52 -112 -112 l-113 -110 110 113 c102
104 115 117 115 109z m420 -11 c0 -2 -8 -10 -17 -17 -16 -13 -17 -12 -4 4 13
16 21 21 21 13z m-5939 -43 c13 -16 12 -17 -3 -4 -17 13 -22 21 -14 21 2 0 10
-8 17 -17z m1866 -19 c-3 -3 -12 -4 -19 -1 -8 3 -5 6 6 6 11 1 17 -2 13 -5z
m4003 2 c0 -2 -8 -10 -17 -17 -16 -13 -17 -12 -4 4 13 16 21 21 21 13z m-2963
-12 c-3 -3 -12 -4 -19 -1 -8 3 -5 6 6 6 11 1 17 -2 13 -5z m346 -1 c-7 -2 -19
-2 -25 0 -7 3 -2 5 12 5 14 0 19 -2 13 -5z m-3192 -20 c13 -16 12 -17 -3 -4
-17 13 -22 21 -14 21 2 0 10 -8 17 -17z m3032 10 c-18 -2 -48 -2 -65 0 -18 2
-4 4 32 4 36 0 50 -2 33 -4z m1627 -87 c0 -2 -8 -10 -17 -17 -16 -13 -17 -12
-4 4 13 16 21 21 21 13z m560 -9 c0 -2 -12 -14 -27 -28 l-28 -24 24 28 c23 25
31 32 31 24z m-4674 -39 l29 -33 -32 29 c-31 28 -38 36 -30 36 2 0 16 -15 33
-32z m69 -18 c10 -11 16 -20 13 -20 -3 0 -13 9 -23 20 -10 11 -16 20 -13 20 3
0 13 -9 23 -20z m4045 16 c0 -2 -8 -10 -17 -17 -16 -13 -17 -12 -4 4 13 16 21
21 21 13z m-50 -10 c0 -2 -8 -10 -17 -17 -16 -13 -17 -12 -4 4 13 16 21 21 21
13z m-3449 -43 c13 -16 12 -17 -3 -4 -17 13 -22 21 -14 21 2 0 10 -8 17 -17z
m4019 13 c0 -2 -8 -10 -17 -17 -16 -13 -17 -12 -4 4 13 16 21 21 21 13z
m-3965 -26 c10 -11 16 -20 13 -20 -3 0 -13 9 -23 20 -10 11 -16 20 -13 20 3 0
13 -9 23 -20z m3905 16 c0 -2 -8 -10 -17 -17 -16 -13 -17 -12 -4 4 13 16 21
21 21 13z m-4479 -33 c13 -16 12 -17 -3 -4 -10 7 -18 15 -18 17 0 8 8 3 21
-13z m50 0 c13 -16 12 -17 -3 -4 -17 13 -22 21 -14 21 2 0 10 -8 17 -17z
m3909 13 c0 -2 -8 -10 -17 -17 -16 -13 -17 -12 -4 4 13 16 21 21 21 13z m-50
-9 c0 -2 -12 -14 -27 -28 l-28 -24 24 28 c23 25 31 32 31 24z m560 -21 c0 -2
-8 -10 -17 -17 -16 -13 -17 -12 -4 4 13 16 21 21 21 13z m-4409 -33 c13 -16
12 -17 -3 -4 -17 13 -22 21 -14 21 2 0 10 -8 17 -17z m545 -15 l29 -33 -32 29
c-31 28 -38 36 -30 36 2 0 16 -15 33 -32z m104 -63 c30 -30 52 -55 49 -55 -2
0 -29 25 -59 55 -30 30 -52 55 -49 55 2 0 29 -25 59 -55z m3100 -20 c-41 -41
-77 -75 -79 -75 -3 0 28 34 69 75 41 41 77 75 79 75 3 0 -28 -34 -69 -75z
m-650 -25 c0 -5 -2 -10 -4 -10 -3 0 -8 5 -11 10 -3 6 -1 10 4 10 6 0 11 -4 11
-10z m-2380 -65 c13 -14 21 -25 18 -25 -2 0 -15 11 -28 25 -13 14 -21 25 -18
25 2 0 15 -11 28 -25z m2910 22 c0 -2 -10 -12 -22 -23 l-23 -19 19 23 c18 21
26 27 26 19z m-1323 -23 c-3 -3 -12 -4 -19 -1 -8 3 -5 6 6 6 11 1 17 -2 13 -5z
m-1512 -24 c10 -11 16 -20 13 -20 -3 0 -13 9 -23 20 -10 11 -16 20 -13 20 3 0
13 -9 23 -20z m2815 -13 c0 -2 -10 -12 -22 -23 l-23 -19 19 23 c18 21 26 27
26 19z m-2799 -44 c13 -16 12 -17 -3 -4 -17 13 -22 21 -14 21 2 0 10 -8 17
-17z m2729 -17 c0 -2 -8 -10 -17 -17 -16 -13 -17 -12 -4 4 13 16 21 21 21 13z
m-570 -30 c0 -2 -8 -10 -17 -17 -16 -13 -17 -12 -4 4 13 16 21 21 21 13z
m-1519 -53 c13 -16 12 -17 -3 -4 -10 7 -18 15 -18 17 0 8 8 3 21 -13z m1459
-16 c0 -2 -10 -12 -22 -23 l-23 -19 19 23 c18 21 26 27 26 19z m-1449 -44 c13
-16 12 -17 -3 -4 -10 7 -18 15 -18 17 0 8 8 3 21 -13z m84 -43 c21 -22 37 -40
34 -40 -3 0 -23 18 -44 40 -21 22 -37 40 -34 40 3 0 23 -18 44 -40z m1296 -34
c-53 -53 -60 -65 -45 -69 16 -4 15 -5 -3 -6 -13 0 -23 2 -23 6 0 8 122 133
129 133 3 0 -23 -29 -58 -64z m-71 -19 c0 -2 -10 -12 -22 -23 l-23 -19 19 23
c18 21 26 27 26 19z m-1603 -33 c-3 -3 -12 -4 -19 -1 -8 3 -5 6 6 6 11 1 17
-2 13 -5z m1860 0 c-3 -3 -12 -4 -19 -1 -8 3 -5 6 6 6 11 1 17 -2 13 -5z
m-1459 -11 c-10 -2 -26 -2 -35 0 -10 3 -2 5 17 5 19 0 27 -2 18 -5z m1349 1
c-3 -3 -12 -4 -19 -1 -8 3 -5 6 6 6 11 1 17 -2 13 -5z m-1230 -10 c-3 -3 -12
-4 -19 -1 -8 3 -5 6 6 6 11 1 17 -2 13 -5z m-277 -8 c0 -2 -9 -6 -20 -9 -11
-3 -20 -1 -20 4 0 5 9 9 20 9 11 0 20 -2 20 -4z m423 -3 c-7 -2 -19 -2 -25 0
-7 3 -2 5 12 5 14 0 19 -2 13 -5z m820 0 c-7 -2 -19 -2 -25 0 -7 3 -2 5 12 5
14 0 19 -2 13 -5z m-420 -10 c-18 -2 -48 -2 -65 0 -18 2 -4 4 32 4 36 0 50 -2
33 -4z m724 1 c-3 -3 -12 -4 -19 -1 -8 3 -5 6 6 6 11 1 17 -2 13 -5z m-114
-11 c-7 -2 -19 -2 -25 0 -7 3 -2 5 12 5 14 0 19 -2 13 -5z m-1060 -10 c-7 -2
-19 -2 -25 0 -7 3 -2 5 12 5 14 0 19 -2 13 -5z m-688 -13 c-3 -5 -12 -10 -18
-10 -7 0 -6 4 3 10 19 12 23 12 15 0z m919 1 c3 -4 -6 -6 -19 -3 -14 2 -25 6
-25 8 0 8 39 4 44 -5z m109 2 c-13 -2 -33 -2 -45 0 -13 2 -3 4 22 4 25 0 35
-2 23 -4z m184 1 c-3 -3 -12 -4 -19 -1 -8 3 -5 6 6 6 11 1 17 -2 13 -5z
m-1172 -14 c3 -5 -1 -10 -10 -10 -9 0 -13 5 -10 10 3 6 8 10 10 10 2 0 7 -4
10 -10z m425 -70 c0 -5 -5 -10 -11 -10 -5 0 -7 5 -4 10 3 6 8 10 11 10 2 0 4
-4 4 -10z m1265 -8 c-3 -3 -11 0 -18 7 -9 10 -8 11 6 5 10 -3 15 -9 12 -12z
m-555 -5 c0 -2 -12 -14 -27 -28 l-28 -24 24 28 c23 25 31 32 31 24z m267 -23
c-3 -3 -12 -4 -19 -1 -8 3 -5 6 6 6 11 1 17 -2 13 -5z"/>
<path d="M3483 4169 c-22 -8 -23 -14 -23 -111 0 -57 4 -109 9 -116 5 -8 21
-12 37 -10 l29 3 3 112 c2 99 1 113 -15 121 -10 6 -28 6 -40 1z m47 -124 c0
-47 -3 -85 -7 -85 -5 0 -7 38 -5 85 2 47 5 85 8 85 2 0 4 -38 4 -85z m-53 -22
c-2 -21 -4 -6 -4 32 0 39 2 55 4 38 2 -18 2 -50 0 -70z"/>
<path d="M4460 4050 l0 -121 33 3 32 3 0 115 0 115 -32 3 -33 3 0 -121z"/>
<path d="M2500 10489 c-28 -22 -50 -43 -50 -48 0 -4 38 -13 85 -20 81 -12 85
-12 115 9 16 12 30 23 30 25 0 2 -29 19 -65 38 l-66 35 -49 -39z"/>
<path d="M7771 10387 c-12 -27 -21 -55 -21 -62 0 -11 108 -60 116 -53 11 11
42 114 36 119 -4 4 -30 16 -59 27 l-51 19 -21 -50z"/>
<path d="M9369 10122 c-40 -108 -96 -260 -125 -336 l-53 -140 41 -35 c23 -20
49 -41 58 -48 14 -10 66 18 319 165 166 97 303 181 304 186 1 4 -20 28 -48 51
l-50 43 -219 -135 c-120 -74 -220 -133 -221 -131 -2 2 23 73 56 158 126 323
124 317 103 341 -10 12 -35 34 -55 50 l-37 29 -73 -198z"/>
<path d="M2236 10044 c-22 -25 -35 -48 -30 -52 5 -4 26 -23 46 -41 l38 -35 24
23 25 24 17 -36 c15 -31 16 -42 5 -77 -6 -22 -17 -40 -24 -40 -7 0 -48 36 -92
80 l-79 80 -48 -47 -48 -47 179 -181 c107 -107 182 -191 186 -206 13 -52 -60
-143 -124 -155 -51 -10 -76 8 -264 188 l-164 157 -48 -49 -48 -49 134 -129
c247 -237 271 -255 355 -255 130 0 295 167 294 297 -1 53 -35 111 -115 195
l-77 80 20 33 c28 47 36 92 21 135 -12 39 -113 154 -133 152 -6 0 -29 -21 -50
-45z"/>
<path d="M9769 9565 c-129 -123 -235 -230 -237 -237 -1 -7 17 -33 42 -57 l44
-44 241 233 c133 128 241 236 241 239 0 8 -83 91 -91 91 -3 0 -111 -101 -240
-225z"/>
<path d="M10084 9442 c-72 -59 -188 -153 -257 -210 l-128 -103 37 -44 c20 -25
41 -45 47 -45 6 0 78 55 161 122 83 67 157 126 164 131 7 5 -24 -95 -68 -223
-44 -128 -80 -239 -80 -247 0 -9 18 -37 39 -64 l39 -49 237 192 c131 106 249
202 263 214 28 23 26 29 -21 84 -15 17 -33 30 -40 27 -6 -3 -82 -62 -167 -131
-85 -69 -158 -126 -162 -126 -7 0 7 45 102 308 l62 173 -38 49 c-21 28 -43 50
-49 50 -5 0 -69 -49 -141 -108z"/>
<path d="M1614 9311 c-39 -23 -78 -71 -195 -230 -49 -68 -86 -127 -82 -131 25
-22 526 -382 536 -385 7 -2 29 20 50 50 l37 54 -114 82 c-125 90 -125 89 -66
144 l32 30 166 0 166 0 44 58 c24 32 42 61 38 64 -13 13 -251 20 -307 9 l-56
-12 14 46 c28 91 -9 175 -98 221 -50 25 -124 25 -165 0z m130 -147 c39 -40 34
-71 -27 -160 -29 -43 -60 -82 -69 -88 -14 -9 -61 19 -137 81 -6 4 67 110 108
155 42 48 85 51 125 12z"/>
<path d="M10590 8853 c-52 -31 -180 -105 -285 -166 -104 -60 -191 -111 -193
-112 -4 -4 62 -115 68 -115 3 0 61 32 128 70 67 39 123 70 126 70 2 0 27 -42
56 -92 29 -51 59 -103 67 -114 13 -21 10 -24 -112 -94 -69 -39 -125 -76 -125
-81 0 -14 54 -109 63 -109 4 0 138 75 297 167 l290 166 -26 46 c-45 78 -38 77
-153 11 -56 -33 -108 -60 -115 -60 -12 0 -136 201 -136 218 0 4 42 30 93 59
144 81 136 71 100 134 -16 29 -34 54 -39 55 -5 1 -52 -23 -104 -53z"/>
<path d="M1112 8561 c-67 -126 -122 -233 -122 -240 0 -11 70 -51 89 -51 6 0
26 30 45 68 59 115 28 118 301 -29 132 -71 243 -129 247 -129 4 0 21 27 38 59
l29 59 -242 128 c-133 70 -244 129 -246 131 -3 2 15 44 39 93 24 49 42 91 39
94 -5 5 -87 46 -92 46 -2 0 -58 -103 -125 -229z"/>
<path d="M733 6233 c-89 -117 -109 -203 -65 -275 23 -37 91 -88 117 -88 46 0
129 75 145 130 18 62 -26 171 -102 254 l-43 48 -52 -69z"/>
<path d="M11166 6239 c-88 -115 -110 -190 -78 -262 21 -48 90 -107 124 -107
41 0 109 53 137 107 32 63 -8 186 -93 279 l-42 47 -48 -64z"/>
<path d="M503 6211 c9 -25 8 -44 -6 -95 -22 -83 -21 -118 3 -165 37 -73 104
-111 200 -111 l44 0 -46 32 c-51 36 -98 100 -98 134 0 12 4 44 10 72 15 83
-15 132 -97 156 -20 7 -21 5 -10 -23z"/>
<path d="M1033 6221 c-62 -29 -78 -66 -63 -147 7 -35 9 -75 6 -88 -8 -32 -50
-81 -101 -119 l-40 -30 67 6 c73 7 111 22 144 59 54 58 66 121 39 198 -18 51
-19 112 -3 128 17 17 -1 14 -49 -7z"/>
<path d="M10933 6211 c9 -24 8 -41 -3 -78 -33 -116 -22 -180 40 -237 43 -38
92 -56 159 -56 l44 0 -45 30 c-25 17 -58 48 -72 69 -27 38 -27 42 -20 133 l6
94 -36 32 c-20 18 -41 32 -46 32 -4 0 -15 3 -24 6 -13 5 -13 1 -3 -25z"/>
<path d="M11463 6220 c-23 -10 -49 -30 -59 -45 -16 -24 -16 -34 -5 -101 11
-67 11 -78 -6 -112 -10 -20 -42 -56 -71 -79 l-53 -43 44 0 c89 0 167 45 198
114 24 52 24 86 -1 164 -15 47 -17 68 -9 88 5 15 8 28 7 30 -2 1 -22 -6 -45
-16z"/>
<path d="M322 6011 c67 -153 81 -174 137 -203 60 -31 144 -37 216 -14 l40 13
-50 8 c-112 18 -161 52 -204 144 -40 85 -55 100 -118 110 l-50 8 29 -66z"/>
<path d="M1231 6069 c-57 -11 -77 -30 -113 -111 -36 -81 -76 -111 -180 -137
l-71 -17 40 -12 c59 -18 151 -15 198 7 53 24 98 77 124 146 12 31 30 74 41 95
11 22 17 40 13 39 -5 -1 -28 -5 -52 -10z"/>
<path d="M10723 6071 c2 -3 13 -28 25 -56 66 -145 79 -170 107 -190 60 -45
148 -57 241 -34 54 14 63 24 21 25 -59 1 -103 14 -149 43 -37 24 -52 43 -81
104 -21 44 -46 81 -59 88 -25 14 -111 30 -105 20z"/>
<path d="M11661 6069 c-57 -11 -78 -31 -111 -105 -42 -93 -88 -124 -220 -150
l-35 -7 35 -13 c19 -7 63 -13 98 -13 119 -2 184 47 233 172 17 44 37 90 46
103 8 13 11 24 7 23 -5 -1 -29 -5 -53 -10z"/>
<path d="M715 5776 c-30 -15 -66 -22 -140 -26 l-100 -6 38 -17 c22 -10 62 -23
91 -28 66 -14 116 5 146 53 33 54 28 58 -35 24z"/>
<path d="M810 5791 c0 -22 46 -75 77 -88 43 -18 116 -7 180 26 l38 19 -87 0
c-68 1 -100 6 -147 25 -34 14 -61 22 -61 18z"/>
<path d="M11175 5790 c-12 -19 -119 -42 -199 -42 l-81 0 42 -19 c24 -11 67
-24 96 -30 46 -10 60 -9 90 6 31 15 77 68 77 89 0 10 -18 7 -25 -4z"/>
<path d="M11240 5785 c0 -24 50 -73 85 -85 41 -13 119 0 175 30 l35 18 -87 0
c-69 1 -100 6 -147 25 -44 18 -61 21 -61 12z"/>
<path d="M9893 3006 c-24 -29 -43 -57 -43 -63 0 -5 23 -71 50 -147 28 -77 48
-141 45 -144 -2 -3 -64 5 -137 17 -73 12 -143 21 -155 21 -13 0 -40 -21 -72
-57 -27 -32 -49 -59 -47 -60 1 -2 90 -14 197 -28 107 -14 212 -28 233 -32 36
-6 97 -50 248 -181 16 -13 20 -11 45 19 70 83 73 67 -30 152 -51 41 -102 86
-115 100 -15 16 -46 97 -90 237 -37 117 -72 215 -77 216 -6 2 -29 -21 -52 -50z"/>
<path d="M2067 2588 c-80 -155 -157 -303 -170 -327 l-26 -45 52 -56 52 -56
335 144 c184 79 336 145 339 147 6 6 -83 104 -95 105 -6 0 -116 -49 -245 -109
-129 -59 -236 -107 -238 -105 -4 4 14 40 150 295 49 91 89 172 89 180 0 8 -22
36 -49 63 l-48 48 -146 -284z"/>
<path d="M9311 2370 c-107 -93 -200 -175 -208 -183 -12 -11 -8 -20 25 -57 l38
-43 78 68 c65 57 80 65 90 54 7 -8 91 -104 186 -214 96 -110 179 -200 185
-200 6 0 32 18 57 40 l46 41 -190 219 -190 220 29 25 c16 14 50 44 77 67 l49
43 -37 45 c-21 25 -38 45 -39 45 -1 -1 -89 -77 -196 -170z"/>
<path d="M2720 2287 c-14 -17 -99 -117 -190 -221 -91 -104 -180 -207 -199
-229 l-35 -40 47 -43 c25 -24 50 -44 55 -44 5 0 110 117 235 260 l226 259 -52
46 c-28 25 -54 45 -57 44 -3 0 -16 -14 -30 -32z"/>
<path d="M2803 1822 l-202 -277 32 -27 c53 -45 77 -55 87 -37 5 8 62 88 127
178 70 97 119 157 121 147 2 -8 -4 -110 -12 -226 -23 -304 -26 -280 36 -323
28 -20 55 -34 59 -31 11 6 411 556 407 558 -2 1 -26 19 -54 39 l-50 36 -134
-185 c-73 -101 -135 -182 -137 -180 -2 2 5 121 16 264 12 143 21 262 21 265 0
8 -96 77 -106 77 -5 0 -100 -125 -211 -278z"/>
<path d="M8919 2049 c-24 -17 -48 -35 -53 -39 -6 -6 339 -499 395 -564 5 -5
33 9 64 33 l56 42 -23 32 c-116 163 -381 523 -387 525 -4 1 -27 -12 -52 -29z"/>
<path d="M8504 1791 c-74 -35 -138 -91 -165 -142 -41 -82 -14 -186 63 -236 56
-37 127 -37 276 2 104 28 114 29 139 15 64 -36 46 -119 -36 -171 -67 -43 -131
-39 -187 13 -22 19 -22 19 -73 -17 -28 -20 -51 -40 -51 -45 0 -17 89 -88 124
-100 88 -29 218 10 312 93 58 51 84 103 84 167 0 89 -41 157 -115 191 -52 24
-113 24 -205 -2 -162 -44 -196 -44 -220 2 -24 44 69 130 144 132 19 0 45 -8
63 -21 l30 -21 56 35 c32 20 57 39 57 43 0 4 -12 19 -27 34 -68 64 -170 75
-269 28z"/>
<path d="M3532 1533 c-49 -93 -122 -229 -161 -305 l-72 -136 54 -31 c30 -17
58 -31 63 -31 5 0 40 59 77 130 38 72 72 130 76 130 6 0 230 -117 239 -125 1
-1 -29 -61 -68 -132 -38 -72 -70 -133 -70 -136 0 -4 27 -20 60 -37 l59 -30 15
27 c9 16 82 154 164 308 l149 280 -60 33 c-47 26 -62 31 -69 20 -4 -7 -33 -61
-63 -120 -46 -88 -58 -106 -73 -100 -30 13 -186 94 -209 109 l-22 15 59 112
c33 62 60 118 60 124 0 11 -89 62 -109 62 -5 0 -49 -75 -99 -167z"/>
<path d="M7895 1471 c-158 -57 -300 -120 -297 -133 1 -7 59 -153 128 -324
l126 -312 61 25 c34 14 63 26 64 27 2 1 -22 63 -51 137 l-55 134 32 14 c69 29
98 20 238 -73 145 -96 136 -95 236 -51 l56 25 -34 23 c-19 13 -69 49 -112 80
-43 31 -103 64 -133 74 l-54 17 36 30 c39 32 73 95 74 136 0 71 -49 154 -111
186 -43 22 -115 17 -204 -15z m130 -107 c19 -8 45 -55 45 -83 0 -11 -10 -31
-22 -46 -26 -29 -207 -110 -219 -98 -10 11 -59 133 -59 148 0 16 166 83 207
84 17 1 39 -2 48 -5z"/>
<path d="M4432 1096 c-35 -123 -66 -248 -69 -278 -7 -73 10 -121 62 -174 34
-34 60 -48 124 -68 158 -50 257 -28 316 71 20 32 54 133 99 287 37 131 66 239
64 240 -12 10 -124 34 -129 28 -3 -4 -23 -68 -44 -142 -52 -189 -95 -320 -112
-346 -58 -89 -243 -22 -243 87 0 15 29 128 65 253 36 124 65 228 65 231 0 6
-99 35 -119 35 -12 0 -31 -54 -79 -224z"/>
<path d="M7425 1285 c-5 -2 -113 -27 -240 -55 -126 -29 -231 -53 -232 -54 -2
-2 26 -126 61 -277 35 -151 70 -301 77 -334 7 -33 14 -62 15 -64 2 -2 118 22
259 54 283 65 268 56 242 136 l-12 37 -185 -43 c-102 -24 -188 -40 -191 -37
-9 11 -43 171 -37 177 3 3 78 22 167 43 178 41 172 36 150 115 -8 29 -14 37
-27 33 -29 -9 -276 -64 -301 -68 -22 -3 -26 2 -37 52 -24 102 -35 92 156 135
93 21 174 41 180 45 7 5 7 22 -1 58 -12 48 -18 56 -44 47z"/>
<path d="M5205 1128 c-8 -35 -94 -662 -92 -665 4 -3 122 -21 124 -19 1 1 14
85 28 186 33 244 35 254 45 244 4 -5 36 -74 70 -154 34 -80 80 -184 102 -231
43 -94 50 -99 145 -99 28 0 33 4 37 33 14 84 86 616 86 634 0 17 -9 21 -57 27
-35 4 -59 3 -63 -4 -3 -5 -19 -107 -36 -225 -16 -118 -31 -215 -34 -215 -3 0
-52 110 -110 245 -115 267 -99 245 -197 260 -38 6 -43 5 -48 -17z"/>
<path d="M6710 1143 c-19 -3 -38 -8 -42 -11 -4 -4 -28 -122 -54 -262 -25 -140
-48 -257 -50 -259 -6 -7 -6 -8 -128 237 l-117 234 -72 -7 c-40 -4 -74 -9 -76
-11 -2 -1 71 -146 163 -321 91 -175 167 -322 169 -328 3 -8 142 7 153 17 2 3
35 157 74 344 38 186 72 347 74 357 4 18 -11 19 -94 10z"/>
<path d="M5930 720 l0 -350 70 0 70 0 0 123 c0 68 -3 226 -7 350 l-6 227 -64
0 -63 0 0 -350z"/>
</g>
</svg>
